<?xml version="1.0" encoding="UTF-8"?>
<svg id="Layer_2" data-name="Layer 2" xmlns="http://www.w3.org/2000/svg" viewBox="0 0 397.75 397.75">
  <defs>
    <style>
      .cls-1 {
        fill: #fff;
      }
    </style>
  </defs>
  <g id="Layer_1-2" data-name="Layer 1">
    <rect width="397.75" height="397.75" rx="100.19" ry="100.19"/>
    <g>
      <path class="cls-1" d="M213.19,288.86l-6-98-2,1.5,1,96c-.73,2.64-7.94,1.04-10.5,1.5-3.73.67-5.04-.2-9,1-1.75.53-5.06-2.4-8,0l-3.5-2.5c.18-6.65-.25-13.35,0-20,1.37-36.29,2.03-74.12,0-111,2.23-15.26,0-32.66,2-48,.23-1.73-.15-3.72,0-5.5,1.61-.55,2.11.93,2.5,1,3.22.57,5.18-.73,7-1,5.81-.87,9.66-.4,15,0s11.1-.29,16.5,0c-.55,1.61.93,2.11,1,2.5.46,2.59-.23,6.17,0,9,1.37,16.66,2.95,34.57,5,51,.41,3.29-.85,5.41-1,7-.43,4.64.31,9.8,0,14.5l2,2c1.65.25.97-1.34,1-2.5.65-22.83,3.72-45.64,5-68,.23-3.98-.63-9.41,0-13,.07-.39,1.55-.89,1-2.5,1.78-.15,3.77.23,5.5,0,.37-.05.64-.97,1-1,9.72-.93,21.04,1.56,30-1,1.03-.29,2.68,1.75,4.5,1v117.5c-2.46,3.25,1.78,12.65,1,16-2.21,9.45.23,17.46-2,27-.58,2.48.94,3.6,1,4,.39,2.67.52,15.7,0,18-.08.35-.8.57-1,1-.15.32.13.8,0,1-.38.6-3.1,2.41-3.5,2.5-2.7.58-13.81.33-17,0-.36-.04-.62-.94-1-1-1.51-.22-6.5.54-6.5-1.5v-98.5c-2.13.56-1.86,1.8-2,3.5-.45,5.49.37,11.46,0,17-.33,4.87-2.75,11.85-2,17,1.91,13.02-2.67,37.66-4,52-.23,2.52.41,5.68,0,8-.07.39-1.55.89-1,2.5h-22Z"/>
      <path class="cls-1" d="M164.48,194.36c-.14.52-1.64,1.81-2.5,1.5-1.07.58-1.57-.92-2-1-3.87-.68-10.66.92-14,0-.63-.17-1.41-2.08-2.5-2v9l-7,1c-.89,2.85,2.62,2.26,4.5,2,1.35-.19,1.48-.67,2.5-1v13h2c-.6,2.39-.58,5.14-1,7.5-1.26,7.08-2.5,17.92-3,25-.25,3.45.18,7.04,0,10.5.38.38,6.83-.3,8.5,0,.37.07.59.87,1,1,1.97.6,5.23-3.05,7.5.5.14.22-.15.73,0,1,1.4,2.52,2.61,3.65,2,7-.07.38-.95.63-1,1-.25,2.04-1.2,11.07-1,12,.24,1.1,2.91,3.67,3,4,.32,1.18-.21,3.13,0,4.5l-2-3-5.5,2-11-5-1,4c-1.3-.68-2.89-.68-4-1-5.7-1.62-11.18-.54-17-2-4.17-1.05-2.92-.38-6,0-2.66.33-5.77-.23-8.5,0,.22-6.13-.3-12.36,0-18.5.02-.35.98-.65,1-1,.78-13.57.47-27.21,3-40,.2-1.03-.13-2.38,0-3.5l2,1v-4c-3.7,2.6-6.07-.08-8.5-3-.84-1.02-1.91-1.29-1.5-3,3.33-.39,5.51.18,5,4l2-1.5c.18-3.98-.25-8.03,0-12,1.65-26.56-1.26-56.88,2-83,.41-3.29-.85-5.41-1-7-.18-1.96-.4-8.53,0-10,.14-.52,1.64-1.81,2.5-1.5.41.12.62.92,1,1,1.6.35,21.86,1.26,23,1,.4-.09.68-1.36,2-1,7.57,2.09,14.38-.34,22,1,.39.07.89,1.55,2.5,1-.13,1.12.21,2.48,0,3.5-.71,3.44-2.01,12.35-1,16,.15.55,1.85,1.45,2,2,.39,1.41-.27,3.86,0,5.5-1.82.76-2.95-.86-3.5-1-1.01-.25-3.68-.95-4-1-3.06-.45-6,1.19-8-2-.87.57-5.5,3.64-5.5,4.5v35.5c1.98-.28,4.7.4,6.5,0,3.46-.78,6.78.61,11,0,.32-.05,1.75-1.78,3.5-1v26.5Z"/>
    </g>
  </g>
</svg>