<?xml version="1.0" encoding="UTF-8"?>
<svg id="Layer_2" data-name="Layer 2" xmlns="http://www.w3.org/2000/svg" viewBox="0 0 397.75 397.75">
  <defs>
    <style>
      .cls-1 {
        fill: #fff;
      }
    </style>
  </defs>
  <g id="Layer_1-2" data-name="Layer 1">
    <rect class="cls-1" width="397.75" height="397.75" rx="100.19" ry="100.19"/>
    <g>
      <path d="M228.54,309.27l-7.16-116.98-2.39,1.79,1.19,114.59c-.87,3.15-9.48,1.24-12.53,1.79-4.45.8-6.02-.24-10.74,1.19-2.09.63-6.04-2.86-9.55,0l-4.18-2.98c.21-7.94-.3-15.94,0-23.87,1.64-43.32,2.42-88.47,0-132.5,2.66-18.22,0-38.99,2.39-57.3.27-2.07-.18-4.44,0-6.57,1.92-.66,2.52,1.11,2.98,1.19,3.84.68,6.18-.87,8.36-1.19,6.94-1.04,11.53-.48,17.91,0s13.25-.35,19.7,0c-.66,1.92,1.11,2.52,1.19,2.98.55,3.09-.27,7.36,0,10.74,1.64,19.89,3.52,41.27,5.97,60.88.49,3.93-1.01,6.46-1.19,8.36-.51,5.54.37,11.7,0,17.31l2.39,2.39c1.97.3,1.16-1.6,1.19-2.98.78-27.25,4.44-54.48,5.97-81.17.27-4.75-.75-11.23,0-15.52.08-.47,1.85-1.06,1.19-2.98,2.12-.18,4.5.27,6.57,0,.44-.06.76-1.16,1.19-1.19,11.6-1.11,25.11,1.86,35.81-1.19,1.23-.35,3.2,2.09,5.37,1.19v140.26c-2.94,3.88,2.12,15.1,1.19,19.1-2.64,11.28.27,20.84-2.39,32.23-.69,2.96,1.12,4.3,1.19,4.77.47,3.19.62,18.74,0,21.49-.1.42-.95.68-1.19,1.19-.18.38.16.95,0,1.19-.45.72-3.7,2.88-4.18,2.98-3.22.69-16.48.39-20.29,0-.43-.05-.74-1.12-1.19-1.19-1.8-.26-7.76.64-7.76-1.79v-117.58c-2.54.67-2.22,2.15-2.39,4.18-.54,6.55.44,13.68,0,20.29-.39,5.81-3.28,14.15-2.39,20.29,2.28,15.54-3.19,44.95-4.77,62.07-.27,3.01.49,6.78,0,9.55-.08.47-1.85,1.06-1.19,2.98h-26.26Z"/>
      <path d="M170.4,196.46c-.17.62-1.96,2.16-2.98,1.79-1.28.69-1.87-1.1-2.39-1.19-4.62-.81-12.72,1.1-16.71,0-.75-.2-1.68-2.48-2.98-2.39v10.74l-8.36,1.19c-1.06,3.4,3.13,2.7,5.37,2.39,1.61-.23,1.77-.8,2.98-1.19v15.52h2.39c-.72,2.85-.69,6.14-1.19,8.95-1.5,8.45-2.98,21.39-3.58,29.84-.3,4.12.21,8.4,0,12.53.45.45,8.15-.36,10.15,0,.44.08.7,1.04,1.19,1.19,2.35.72,6.24-3.64,8.95.6.17.26-.18.87,0,1.19,1.67,3.01,3.12,4.36,2.39,8.36-.08.45-1.13.75-1.19,1.19-.3,2.44-1.43,13.21-1.19,14.32.29,1.31,3.47,4.38,3.58,4.77.38,1.41-.25,3.74,0,5.37l-2.39-3.58-6.57,2.39-13.13-5.97-1.19,4.77c-1.55-.81-3.45-.81-4.77-1.19-6.8-1.93-13.35-.64-20.29-2.39-4.98-1.25-3.49-.45-7.16,0-3.18.39-6.89-.27-10.15,0,.26-7.32-.36-14.75,0-22.08.02-.42,1.17-.78,1.19-1.19.93-16.2.56-32.48,3.58-47.75.24-1.23-.16-2.84,0-4.18l2.39,1.19v-4.77c-4.42,3.1-7.25-.1-10.15-3.58-1-1.22-2.28-1.54-1.79-3.58,3.97-.47,6.58.21,5.97,4.77l2.39-1.79c.21-4.75-.3-9.59,0-14.32,1.97-31.7-1.5-67.9,2.39-99.07.49-3.93-1.01-6.46-1.19-8.36-.21-2.34-.48-10.18,0-11.94.17-.62,1.96-2.16,2.98-1.79.49.14.74,1.1,1.19,1.19,1.91.42,26.09,1.5,27.45,1.19.48-.11.81-1.62,2.39-1.19,9.04,2.49,17.16-.41,26.26,1.19.47.08,1.06,1.85,2.98,1.19-.16,1.34.25,2.96,0,4.18-.85,4.11-2.4,14.74-1.19,19.1.18.66,2.21,1.73,2.39,2.39.47,1.68-.32,4.61,0,6.57-2.17.91-3.52-1.03-4.18-1.19-1.21-.3-4.39-1.13-4.77-1.19-3.65-.54-7.16,1.42-9.55-2.39-1.04.68-6.57,4.34-6.57,5.37v42.38c2.36-.33,5.61.48,7.76,0,4.13-.93,8.09.73,13.13,0,.38-.06,2.09-2.12,4.18-1.19v31.63Z"/>
    </g>
  </g>
</svg>